<?xml version="1.0" encoding="UTF-8" standalone="no"?>
<!-- Created with Inkscape (http://www.inkscape.org/) -->

<svg
   xmlns:dc="http://purl.org/dc/elements/1.1/"
   xmlns:cc="http://creativecommons.org/ns#"
   xmlns:rdf="http://www.w3.org/1999/02/22-rdf-syntax-ns#"
   xmlns:svg="http://www.w3.org/2000/svg"
   xmlns="http://www.w3.org/2000/svg"
   xmlns:xlink="http://www.w3.org/1999/xlink"
   xmlns:sodipodi="http://sodipodi.sourceforge.net/DTD/sodipodi-0.dtd"
   xmlns:inkscape="http://www.inkscape.org/namespaces/inkscape"
   id="svg3675"
   height="48"
   width="48"
   version="1.0"
   inkscape:version="0.48.4 r9939"
   sodipodi:docname="apport.svg"
   inkscape:export-filename="/home/vishnoo/Desktop/apport-48.png"
   inkscape:export-xdpi="90"
   inkscape:export-ydpi="90">
  <sodipodi:namedview
     pagecolor="#ffffff"
     bordercolor="#666666"
     borderopacity="1"
     objecttolerance="10"
     gridtolerance="10"
     guidetolerance="10"
     inkscape:pageopacity="0"
     inkscape:pageshadow="2"
     inkscape:window-width="1280"
     inkscape:window-height="776"
     id="namedview24"
     showgrid="false"
     inkscape:zoom="1"
     inkscape:cx="23.601305"
     inkscape:cy="26.419449"
     inkscape:window-x="0"
     inkscape:window-y="24"
     inkscape:window-maximized="1"
     inkscape:current-layer="layer3"
     inkscape:snap-global="true">
    <inkscape:grid
       type="xygrid"
       id="grid3008" />
  </sodipodi:namedview>
  <metadata
     id="metadata29">
    <rdf:RDF>
      <cc:Work
         rdf:about="">
        <dc:format>image/svg+xml</dc:format>
        <dc:type
           rdf:resource="http://purl.org/dc/dcmitype/StillImage" />
        <dc:title />
      </cc:Work>
    </rdf:RDF>
  </metadata>
  <defs
     id="defs3677">
    <radialGradient
       fy="3.9898655"
       fx="24.756285"
       r="20.396999"
       gradientTransform="matrix(-3.142937e-8,2.0591264,-1.8630191,-2.8436097e-8,-16.045795,-47.797048)"
       cx="24.756285"
       cy="3.9898655"
       gradientUnits="userSpaceOnUse"
       id="radialGradient3849">
      <stop
         offset="0"
         style="stop-color:#8bd0ea;stop-opacity:1"
         id="stop3851" />
      <stop
         offset=".26238"
         style="stop-color:#19b6ee;stop-opacity:1"
         id="stop3853" />
      <stop
         offset="0.85193986"
         style="stop-color:#3b90af;stop-opacity:1"
         id="stop3855" />
      <stop
         offset="1"
         style="stop-color:#195870;stop-opacity:1"
         id="stop3857" />
    </radialGradient>
    <radialGradient
       inkscape:collect="always"
       xlink:href="#radialGradient3849"
       id="radialGradient3867-0"
       cx="35.589161"
       cy="40.983368"
       fx="35.589161"
       fy="40.983368"
       r="2.2073171"
       gradientTransform="matrix(3.3076922,0.14293195,-0.08590439,1.9944273,-78.535397,-45.715261)"
       gradientUnits="userSpaceOnUse" />
    <radialGradient
       id="radialGradient2410-3"
       gradientUnits="userSpaceOnUse"
       cy="3.9898655"
       cx="24.756285"
       gradientTransform="matrix(-3.142937e-8,2.0591264,-1.8630191,-2.8436097e-8,-16.045795,-47.797048)"
       r="20.396999"
       fx="24.756285"
       fy="3.9898655">
      <stop
         id="stop2778-1"
         style="stop-color:#8bd0ea;stop-opacity:1"
         offset="0" />
      <stop
         id="stop2780-4"
         style="stop-color:#19b6ee;stop-opacity:1"
         offset=".26238" />
      <stop
         id="stop2782-8"
         style="stop-color:#3b90af;stop-opacity:1"
         offset="0.80952388" />
      <stop
         id="stop2784-8"
         style="stop-color:#195870;stop-opacity:1"
         offset="1" />
    </radialGradient>
    <linearGradient
       inkscape:collect="always"
       xlink:href="#linearGradient2412-9"
       id="linearGradient3857-3"
       x1="34.022404"
       y1="41.681366"
       x2="45.269791"
       y2="44.260967"
       gradientUnits="userSpaceOnUse" />
    <linearGradient
       id="linearGradient2412-9"
       y2="3.0816"
       gradientUnits="userSpaceOnUse"
       x2="18.379"
       gradientTransform="matrix(0.95844,0,0,0.95844,-46.481472,-0.82322829)"
       y1="44.98"
       x1="18.379">
      <stop
         offset="0"
         style="stop-color:#409fc2;stop-opacity:1;"
         id="stop3839-7" />
      <stop
         id="stop2790-7"
         style="stop-color:#1f566a;stop-opacity:1;"
         offset="1" />
    </linearGradient>
    <linearGradient
       id="linearGradient2407-9"
       y2="9.7258072"
       gradientUnits="userSpaceOnUse"
       x2="62.673725"
       gradientTransform="matrix(2.1154,0,0,2.1153,-155.05899,29.606272)"
       y1="-15.329741"
       x1="62.673725">
      <stop
         offset="0"
         style="stop-color:#ffffff;stop-opacity:0;"
         id="stop3800" />
      <stop
         id="stop4877-7"
         style="stop-color:#ffffff;stop-opacity:1;"
         offset="1" />
    </linearGradient>
    <radialGradient
       r="23"
       fy="22.401701"
       fx="24.030018"
       cy="22.401701"
       cx="24.030018"
       gradientTransform="matrix(3.2608695,0.26086952,-0.20529702,2.5662136,-48.759747,-41.756249)"
       gradientUnits="userSpaceOnUse"
       id="radialGradient3919"
       xlink:href="#linearGradient2412-9"
       inkscape:collect="always" />
    <radialGradient
       inkscape:collect="always"
       xlink:href="#radialGradient2410-3"
       id="radialGradient4016"
       gradientUnits="userSpaceOnUse"
       gradientTransform="matrix(1.9831766,0.11682218,-0.09206273,1.562859,-23.700045,-10.690365)"
       cx="26.513241"
       cy="15.85399"
       fx="26.513241"
       fy="15.85399"
       r="23" />
    <radialGradient
       inkscape:collect="always"
       xlink:href="#linearGradient2407-9"
       id="radialGradient3798"
       cx="24.001537"
       cy="24.000595"
       fx="24.001537"
       fy="24.000595"
       r="21.882778"
       gradientTransform="matrix(1.0966826,-2.7198982e-5,2.4795997e-5,0.99979251,-2.3211268,0.0056328)"
       gradientUnits="userSpaceOnUse"
       spreadMethod="reflect" />
    <radialGradient
       inkscape:collect="always"
       xlink:href="#radialGradient2410-3"
       id="radialGradient3817"
       cx="7"
       cy="9.5464945"
       fx="7"
       fy="9.5464945"
       r="6.3624954"
       gradientTransform="matrix(2.5538452,2.0430759,-0.62868402,0.78585515,-4.8751871,-11.803694)"
       gradientUnits="userSpaceOnUse" />
    <radialGradient
       inkscape:collect="always"
       xlink:href="#radialGradient2410-3"
       id="radialGradient3825"
       cx="20.509434"
       cy="41.278393"
       fx="20.509434"
       fy="41.278393"
       r="2.6915121"
       gradientTransform="matrix(2.9398827,1.0690471,-1.4861524,4.0869236,21.050654,-147.62718)"
       gradientUnits="userSpaceOnUse" />
    <radialGradient
       inkscape:collect="always"
       xlink:href="#radialGradient2410-3"
       id="radialGradient3837"
       cx="42.473145"
       cy="33.453327"
       fx="42.473145"
       fy="33.453327"
       r="4.5811062"
       gradientTransform="matrix(-2.4011671,-1.7463022,1.1434549,-1.5722515,106.73275,160.76799)"
       gradientUnits="userSpaceOnUse" />
    <radialGradient
       inkscape:collect="always"
       xlink:href="#radialGradient2410-3"
       id="radialGradient3847"
       cx="8"
       cy="33.071236"
       fx="8"
       fy="33.071236"
       r="3.9322445"
       gradientTransform="matrix(2.7973845,-1.5258459,0.73065455,1.3395335,-38.542725,0.90673942)"
       gradientUnits="userSpaceOnUse" />
  </defs>
  <g
     inkscape:groupmode="layer"
     id="layer3"
     inkscape:label="plain"
     style="display:inline">
    <g
       id="g3016">
      <path
         sodipodi:nodetypes="zzzzzzszszzzzzzzszazzzzzzzsszzzzaszssssszsz"
         inkscape:connector-curvature="0"
         id="path4007"
         d="m 37.160119,22.394201 c 0,0.766415 10.224326,-0.568431 9.278024,3.235397 -0.946302,3.80383 -7.570417,-1.901913 -8.516719,-0.950957 -0.946302,0.950957 -1.276239,-0.145629 -1.72029,0.546793 -0.444052,0.692424 0.480124,1.191401 1.013038,2.8638 0.532913,1.6724 11.466893,3.050552 8.809823,7.979472 -2.657068,4.92892 -8.306841,-6.968985 -13.108049,-5.489457 -1.366914,0.421225 -1.856261,1.8194 -2.542863,2.701615 -0.686601,0.882216 3.062537,4.104081 1.353135,5.531992 -1.097922,0.917124 -1.169546,-4.070005 -3.038719,-4.58557 -1.869174,-0.515564 -4.144491,0.583677 -5.090793,1.534635 -0.946303,0.950958 1.098563,10.504136 -4.209258,10.733652 -5.30782,0.229515 1.260155,-8.529188 1.827133,-11.54231 0.56698,-3.013121 -0.323384,-3.769388 -1.012418,-4.215624 -0.689033,-0.446236 -1.706964,-1.610231 -3.904091,-0.998192 -2.197127,0.61204 -7.7451929,9.570733 -10.2022509,5.454042 -2.457057,-4.11669 4.2273249,-5.123691 8.4454809,-6.148673 0.856598,-0.208148 1.03886,-2.432815 1.03886,-2.813888 0,-0.381072 0.203015,-1.137576 -0.07249,-1.590286 -0.379745,-0.624028 -0.305712,-1.342428 -1.896257,-1.088155 -1.590548,0.254276 -7.8749409,3.35551 -6.9613749,-0.601328 0.913566,-3.956839 4.6340649,-0.196618 6.8418499,-0.874452 2.207785,-0.677836 2.68425,-2.287021 3.128301,-2.979444 0.444055,-0.692423 -3.591485,-2.391662 -3.334613,-2.649795 0.25688,-0.258136 -14.9657279,-3.071675 -11.1805189,-8.79884 3.78521,-5.7271644 11.4727859,5.35626 12.5402189,6.776813 1.067434,1.420553 7.373514,3.469363 8.39098,-1.624525 0.332914,-1.666716 -4.177913,-6.4439891 -1.310127,-7.5618273 3.891781,-1.5169821 2.996937,6.1632753 3.397404,6.9984633 0.400468,0.835187 1.637916,1.619458 2.997607,-1.287733 1.359692,-2.9071901 -1.329318,-10.31711936 2.455891,-9.3661624 3.78521,0.950957 -0.791677,6.7649923 -0.943938,9.0930394 -0.152261,2.328048 0.601496,2.148779 1.509588,2.427848 1.279814,0.393305 2.555272,-0.28139 3.668049,-1.640611 1.565817,-1.9125992 3.122112,-7.3123481 5.362633,-5.115125 2.240521,2.197223 -3.263435,3.4318938 -3.731157,5.639949 -0.18664,0.881105 1.266668,0.130356 1.458855,1.203641 0.150586,0.840968 -0.958166,0.72307 -1.044499,1.83891 -0.01521,0.196685 0.219248,1.724385 1.416465,1.676665 2.492462,-0.09935 6.907258,-2.778325 7.137793,0.280771 0.212795,2.823688 -6.617173,0.471951 -7.411995,0.770091 -0.794822,0.29814 0.245398,0.815423 0.47654,2.02026 0.156011,0.813214 -1.315248,1.848694 -1.315248,2.615106 z"
         style="fill:url(#radialGradient4016);fill-opacity:1;stroke:url(#radialGradient3919);stroke-width:1;stroke-opacity:1;display:inline" />
      <path
         sodipodi:nodetypes="ssssssscccccss"
         inkscape:connector-curvature="0"
         id="path3807"
         d="M 5.28125,7.1875 C 4.3517509,7.0001779 3.7901089,7.1330681 3.03125,8.28125 2.664531,8.8361098 2.5949411,9.2124606 2.625,9.5625 c 0.030059,0.3500394 0.1588116,0.714893 0.5,1.125 0.6823769,0.820213 2.1123448,1.684694 3.6875,2.375 1.5751552,0.690306 3.280978,1.242837 4.59375,1.625 0.656386,0.191081 1.222408,0.351109 1.625,0.46875 0.201296,0.05882 0.374883,0.09783 0.53125,0.15625 0.07818,0.02921 0.126071,0.06068 0.28125,0.15625 0.07759,0.04778 0.196143,0.06764 0.375,0.34375 0.0048,0.0033 -0.0053,0.02761 0,0.03125 -0.287811,-0.06386 -0.294806,-0.511971 -0.46875,-0.75 C 13.153759,14.300265 11.042415,11.32204 8.65625,9.21875 7.4631677,8.1671051 6.2107491,7.3748221 5.28125,7.1875 z"
         style="fill:url(#radialGradient3817);fill-opacity:1;stroke:none;display:inline;opacity:0.80000000000000004" />
      <path
         sodipodi:nodetypes="cssccsssscc"
         inkscape:connector-curvature="0"
         style="fill:url(#radialGradient3825);fill-opacity:1;stroke:none;display:inline;opacity:0.8"
         d="m 22.3125,35.1875 c -0.196199,1.042672 -0.753925,2.120693 -1.375,3.375 -0.621075,1.254307 -1.31291,2.610468 -1.8125,3.8125 -0.49959,1.202032 -0.744126,2.294335 -0.6875,2.6875 0.02831,0.196583 0.04206,0.183464 0.09375,0.21875 0.05169,0.03529 0.265659,0.116045 0.78125,0.09375 0.989432,-0.04278 1.448124,-0.387049 1.875,-1.09375 0.426876,-0.706701 0.684623,-1.809921 0.8125,-3 0.127877,-1.190079 0.13051,-2.443038 0.15625,-3.5 0.01287,-0.528481 0.03814,-1.003786 0.09375,-1.4375 z"
         id="path3805" />
      <path
         sodipodi:nodetypes="csscsssscc"
         inkscape:connector-curvature="0"
         style="opacity:0.8;fill:url(#radialGradient3837);stroke:none;stroke-linejoin:round;stroke-opacity:1;display:inline;fill-opacity:1"
         d="m 37.21875,30.59375 c 1.374762,0.9126 2.649566,2.145289 3.8125,3.21875 1.162934,1.073461 2.276323,1.950723 2.9375,2.21875 0.330588,0.134013 0.466997,0.127933 0.5625,0.09375 0.0955,-0.03418 0.282857,-0.132976 0.53125,-0.59375 0.502276,-0.931732 0.364427,-1.286679 -0.09375,-1.875 -0.458177,-0.588321 -1.457003,-1.229093 -2.625,-1.78125 -1.167997,-0.552157 -2.494548,-1.042775 -3.59375,-1.5 -0.549601,-0.228612 -1.033231,-0.457243 -1.46875,-0.71875 z"
         id="path3829" />
      <path
         sodipodi:nodetypes="cssscsssc"
         inkscape:connector-curvature="0"
         style="opacity:0.8;fill:url(#radialGradient3847);stroke:none;stroke-linejoin:round;stroke-opacity:1;display:inline;fill-opacity:1"
         d="m 13.53125,30.46875 c -1.861848,0.43296 -3.9068907,0.862758 -5.25,1.5 -0.8309991,0.39427 -1.3324408,0.822367 -1.5,1.15625 -0.1675592,0.333883 -0.2086671,0.679166 0.28125,1.5 0.2140531,0.358636 0.3504894,0.455222 0.46875,0.5 0.1182606,0.04478 0.2766744,0.05403 0.5625,-0.03125 0.5716512,-0.170557 1.5295728,-0.831847 2.46875,-1.6875 0.939177,-0.855653 1.888148,-1.866115 2.78125,-2.75 0.06782,-0.06712 0.122051,-0.121783 0.1875,-0.1875 z"
         id="path3839" />
      <path
         inkscape:href="#path3004-3"
         d="m 29.84375,2.625 c -0.01842,0.00741 -0.122693,0.078102 -0.21875,0.625 -0.09606,0.5468978 -0.09953,1.3737734 -0.0625,2.3125 0.02182,0.553206 0.03396,1.1629709 0.0625,1.75 C 29.94166,6.6095256 30.28966,5.9039182 30.53125,5.25 30.849405,4.388842 30.98921,3.6146105 30.9375,3.25 30.88579,2.8853895 30.915373,2.8468105 30.28125,2.6875 29.940299,2.6018431 29.842576,2.6254726 29.84375,2.625 z M 22.125,6.28125 c -0.186983,0.072884 -0.207471,0.1383398 -0.21875,0.15625 -0.01128,0.01791 -0.03491,0.060667 -0.03125,0.21875 0.0073,0.316166 0.222346,0.9669597 0.5625,1.6875 0.340154,0.7205403 0.767547,1.4954053 1.125,2.25 0.113777,0.240187 0.211529,0.48158 0.3125,0.71875 -0.01135,-0.222917 -0.02063,-0.433855 -0.03125,-0.6875 C 23.809952,9.8174087 23.766294,8.8856147 23.625,8.0625 23.483706,7.2393853 23.207937,6.573527 23,6.34375 22.792063,6.113973 22.814307,6.0125641 22.125,6.28125 z m 17,0.65625 c -0.008,-0.00181 0.03227,0.00148 -0.03125,0.03125 -0.127043,0.05954 -0.518117,0.4111417 -0.90625,1 C 37.974559,8.291815 37.712663,8.7327084 37.5,9.125 37.901108,8.8310119 38.318696,8.5326905 38.65625,8.28125 39.194276,7.8804791 39.549186,7.4727804 39.59375,7.375 39.590867,7.3668305 39.571236,7.318048 39.40625,7.15625 39.231162,6.9845451 39.133031,6.9393083 39.125,6.9375 z M 5.28125,7.1875 C 4.3517509,7.0001779 3.7901089,7.1330681 3.03125,8.28125 2.664531,8.8361098 2.5949411,9.2124606 2.625,9.5625 c 0.030059,0.3500394 0.1588116,0.714893 0.5,1.125 0.6823769,0.820213 2.1123448,1.684694 3.6875,2.375 1.5751552,0.690306 3.280978,1.242837 4.59375,1.625 0.656386,0.191081 1.222408,0.351109 1.625,0.46875 0.201296,0.05882 0.374883,0.09783 0.53125,0.15625 0.07818,0.02921 0.126071,0.06068 0.28125,0.15625 0.07759,0.04778 0.196143,0.06764 0.375,0.34375 0.0048,0.0033 -0.0053,0.02761 0,0.03125 0.04459,0.03058 0.05503,0.0194 0.125,0.0625 0.296539,0.182644 0.770705,0.467036 1.25,0.75 0.479295,0.282964 0.960371,0.55979 1.375,0.90625 0.207314,0.17323 0.411154,0.3499 0.59375,0.65625 0.182596,0.30635 0.31954,0.970486 0,1.46875 -0.179893,0.280514 -0.882029,1.868459 -2.59375,2.875 0.314839,0.102882 0.636138,0.225452 0.84375,0.4375 0.525239,0.536464 0.58758,0.949655 0.65625,1.0625 0.332683,0.546665 0.295714,1.06093 0.28125,1.4375 -0.01446,0.37657 -0.03125,0.705666 -0.03125,0.71875 0,0.391563 -0.0609,0.999242 -0.25,1.75 -0.05594,0.222109 -0.159559,0.45927 -0.25,0.6875 2.503853,-0.575107 4.219696,0.934241 4.5625,1.15625 0.398981,0.25839 1.088603,0.792418 1.4375,1.6875 0.348897,0.895082 0.400442,2.057638 0.09375,3.6875 -0.196199,1.042672 -0.753925,2.120693 -1.375,3.375 -0.621075,1.254307 -1.31291,2.610468 -1.8125,3.8125 -0.49959,1.202032 -0.744126,2.294335 -0.6875,2.6875 0.02831,0.196583 0.04206,0.183464 0.09375,0.21875 0.05169,0.03529 0.265659,0.116045 0.78125,0.09375 0.989432,-0.04278 1.448124,-0.387049 1.875,-1.09375 0.426876,-0.706701 0.684623,-1.809921 0.8125,-3 0.127877,-1.190079 0.13051,-2.443038 0.15625,-3.5 0.01287,-0.528481 0.03814,-1.003786 0.09375,-1.4375 0.05561,-0.433714 0.04355,-0.853499 0.5625,-1.375 0.637849,-0.640988 1.520778,-1.211384 2.59375,-1.59375 1.072972,-0.382366 2.320454,-0.561337 3.5625,-0.21875 0.153638,0.04238 0.24225,0.153101 0.375,0.21875 0.02324,-0.270522 -0.04419,-0.523698 0.15625,-0.78125 0.493212,-0.633729 1.107954,-2.460192 3.0625,-3.0625 1.660992,-0.511847 3.281488,0.1499 4.65625,1.0625 1.374762,0.9126 2.649566,2.145289 3.8125,3.21875 1.162934,1.073461 2.276323,1.950723 2.9375,2.21875 0.330588,0.134013 0.466997,0.127933 0.5625,0.09375 0.0955,-0.03418 0.282857,-0.132976 0.53125,-0.59375 0.502276,-0.931732 0.364427,-1.286679 -0.09375,-1.875 C 44.510573,33.067929 43.511747,32.427157 42.34375,31.875 41.175753,31.322843 39.849202,30.832225 38.75,30.375 38.200399,30.146388 37.716769,29.917757 37.28125,29.65625 36.845731,29.394743 36.383834,29.151709 36.15625,28.4375 35.937609,27.751357 35.655219,27.324381 35.375,26.84375 35.23489,26.603434 35.080599,26.340917 35,25.9375 c -0.0806,-0.403417 0.0085,-0.935952 0.25,-1.3125 0.218054,-0.340018 0.719633,-0.715486 1.1875,-0.75 0.407862,-0.03009 0.536737,0.0573 0.625,0.09375 -0.0096,0.0046 -0.02889,0.02934 0.0625,-0.0625 0.112194,-0.112746 0.225439,-0.122382 0.34375,-0.1875 -0.01836,-0.0027 -0.04432,0.0029 -0.0625,0 -0.18731,-0.02955 -0.352382,-0.04917 -0.59375,-0.15625 -0.120684,-0.05354 -0.269706,-0.138512 -0.4375,-0.3125 -0.167794,-0.173988 -0.34375,-0.509495 -0.34375,-0.84375 0,-1.096084 0.604766,-1.529609 0.9375,-1.96875 0.166367,-0.219571 0.319125,-0.422942 0.375,-0.53125 C 37.267621,19.614834 37.095576,19.376084 36.875,19 36.754136,18.793927 36.530795,18.51685 36.59375,17.90625 36.614887,17.701243 36.757534,17.526255 36.875,17.34375 36.538919,17.087162 36.275389,16.786569 36.125,16.5 35.962854,16.191027 35.870453,15.901034 35.8125,15.65625 35.754547,15.411466 35.687802,15.337692 35.71875,14.9375 35.770688,14.266209 36.128533,13.827465 36.4375,13.5 36.293408,13.471141 36.227425,13.512294 36,13.375 c -0.227425,-0.137294 -0.514526,-0.428964 -0.625,-0.75 -0.02452,-0.07124 0.01262,-0.119173 0,-0.1875 -0.55965,0.621821 -1.140613,1.173566 -1.84375,1.5 -0.821523,0.381395 -1.781651,0.49713 -2.6875,0.21875 -0.296898,-0.09124 -0.963579,-0.05512 -1.625,-0.6875 -0.33071,-0.316189 -0.519563,-0.714409 -0.625,-1.1875 -0.616277,0.999926 -1.300369,1.696793 -2.1875,1.8125 -0.574477,0.07493 -1.123871,-0.09702 -1.5,-0.375 -0.376129,-0.277982 -0.612569,-0.648212 -0.78125,-1 -0.0079,0.109618 0.02354,0.194655 0,0.3125 -0.300449,1.504179 -1.064881,2.644143 -2.0625,3.3125 -0.997619,0.668357 -2.137155,0.874972 -3.21875,0.84375 -1.081595,-0.03122 -2.128257,-0.296106 -3,-0.65625 C 14.972007,16.171106 14.255726,15.766776 13.75,15.09375 13.153759,14.300265 11.042415,11.32204 8.65625,9.21875 7.4631677,8.1671051 6.2107491,7.3748221 5.28125,7.1875 z m 38.875,9.5 c -0.115871,-0.04249 -0.610983,-0.03915 -1.25,0.09375 -0.390456,0.0812 -0.951817,0.176081 -1.40625,0.3125 0.24497,0.03767 0.480389,0.09783 0.71875,0.125 0.827586,0.09432 1.6014,0.06564 1.9375,-0.03125 0.16805,-0.04844 0.177809,-0.08897 0.15625,-0.0625 -0.02156,0.02647 -0.02101,0.10466 -0.03125,-0.03125 -0.03671,-0.48718 -0.0091,-0.363755 -0.125,-0.40625 z M 8.21875,22.25 C 8.091797,22.303205 7.9322984,22.397929 7.75,23.1875 7.6683108,23.541312 7.6760777,23.701081 7.6875,23.75 7.750475,23.774182 8.28814,23.85041 9,23.71875 c 0.7287996,-0.134793 1.586102,-0.397196 2.375,-0.65625 0.07259,-0.02383 0.117319,-0.03896 0.1875,-0.0625 -0.07683,-0.02076 -0.175029,0.02174 -0.25,0 -0.751589,-0.217899 -1.4321022,-0.501208 -2,-0.65625 C 8.7446022,22.188708 8.345703,22.196795 8.21875,22.25 z m 31.5625,1.625 c 0.06137,0.02628 0.124901,0.03483 0.1875,0.0625 0.832608,0.368063 1.761963,0.890414 2.65625,1.28125 0.894287,0.390836 1.750394,0.634148 2.1875,0.625 0.218553,-0.0046 0.297696,-0.0584 0.34375,-0.09375 0.04605,-0.03535 0.11399,-0.110763 0.1875,-0.40625 0.0633,-0.254446 0.04402,-0.298511 0,-0.375 C 45.299731,24.892261 45.16228,24.771182 44.875,24.625 44.300439,24.332636 43.191707,24.111071 42.03125,24 c -0.780846,-0.07474 -1.50858,-0.09773 -2.25,-0.125 z m -26.25,6.59375 c -1.861848,0.43296 -3.9068907,0.862758 -5.25,1.5 -0.8309991,0.39427 -1.3324408,0.822367 -1.5,1.15625 -0.1675592,0.333883 -0.2086671,0.679166 0.28125,1.5 0.2140531,0.358636 0.3504894,0.455222 0.46875,0.5 0.1182606,0.04478 0.2766744,0.05403 0.5625,-0.03125 0.5716512,-0.170557 1.5295728,-0.831847 2.46875,-1.6875 0.939177,-0.855653 1.888148,-1.866115 2.78125,-2.75 0.06782,-0.06712 0.122051,-0.121783 0.1875,-0.1875 z"
         id="path4009"
         style="opacity:0.35999999999999999;fill:none;stroke:url(#radialGradient3798);stroke-opacity:1;display:inline;stroke-linejoin:round"
         xlink:href="#path3004-3"
         inkscape:original="M 29.4375 1.59375 C 27.397809 2.4147366 29.31473 8.3937087 28.125 10.9375 C 26.765309 13.844691 25.525468 13.085187 25.125 12.25 C 24.724533 11.414812 25.610531 3.7330179 21.71875 5.25 C 18.850964 6.3678382 23.364164 11.145784 23.03125 12.8125 C 22.013784 17.906388 15.723684 15.858053 14.65625 14.4375 C 13.588817 13.016947 5.87896 1.9290856 2.09375 7.65625 C -1.691459 13.383415 13.53813 16.179364 13.28125 16.4375 C 13.024378 16.695633 17.069055 18.401327 16.625 19.09375 C 16.180949 19.786173 15.707785 21.384664 13.5 22.0625 C 11.292215 22.740334 7.569816 18.980661 6.65625 22.9375 C 5.742684 26.894338 12.034452 23.816776 13.625 23.5625 C 15.215545 23.308227 15.120255 24.032222 15.5 24.65625 C 15.775505 25.10896 15.59375 25.837678 15.59375 26.21875 C 15.59375 26.599823 15.387848 28.823102 14.53125 29.03125 C 10.313094 30.056232 3.636693 31.07081 6.09375 35.1875 C 8.550808 39.304191 14.115373 30.36204 16.3125 29.75 C 18.509627 29.137961 19.498467 30.303764 20.1875 30.75 C 20.876534 31.196236 21.78573 31.955629 21.21875 34.96875 C 20.651772 37.981872 14.06718 46.729515 19.375 46.5 C 24.682821 46.270484 22.647447 36.700958 23.59375 35.75 C 24.540052 34.799042 26.818326 33.703186 28.6875 34.21875 C 30.556673 34.734315 30.620828 39.729624 31.71875 38.8125 C 33.428152 37.384589 29.688399 34.163466 30.375 33.28125 C 31.061602 32.399035 31.539336 31.014975 32.90625 30.59375 C 37.707458 29.114222 43.374182 40.99142 46.03125 36.0625 C 48.68832 31.13358 37.751663 29.76615 37.21875 28.09375 C 36.685836 26.421351 35.743448 25.911174 36.1875 25.21875 C 36.631551 24.526328 36.959948 25.638457 37.90625 24.6875 C 38.852552 23.736544 45.491198 29.42883 46.4375 25.625 C 47.383802 21.821172 37.15625 23.172665 37.15625 22.40625 C 37.15625 21.639838 38.624761 20.594464 38.46875 19.78125 C 38.237608 18.576413 37.205178 18.04814 38 17.75 C 38.794822 17.45186 45.619045 19.823688 45.40625 17 C 45.175715 13.940904 40.773712 16.6194 38.28125 16.71875 C 37.084033 16.76647 36.82854 15.227935 36.84375 15.03125 C 36.930083 13.91541 38.056836 14.028468 37.90625 13.1875 C 37.714063 12.114215 36.25086 12.881105 36.4375 12 C 36.905222 9.7919448 42.428021 8.540973 40.1875 6.34375 C 37.946979 4.1465269 36.378317 9.5561508 34.8125 11.46875 C 33.699723 12.827971 32.436064 13.487055 31.15625 13.09375 C 30.248158 12.814681 29.472739 13.015548 29.625 10.6875 C 29.777261 8.3594529 34.34771 2.544707 30.5625 1.59375 C 30.089349 1.4748804 29.728884 1.4764662 29.4375 1.59375 z "
         inkscape:radius="-1.1161481"
         sodipodi:type="inkscape:offset" />
      <path
         transform="matrix(0.421434,0.90685376,-0.90680786,0.42145533,56.458792,-6.4201784)"
         d="m 39.048035,41.353657 a 2.7065697,1.498988 0 1 1 -5.41314,0 2.7065697,1.498988 0 1 1 5.41314,0 z"
         sodipodi:ry="1.498988"
         sodipodi:rx="2.7065697"
         sodipodi:cy="41.353657"
         sodipodi:cx="36.341465"
         id="path4011"
         style="fill:url(#radialGradient3867-0);fill-opacity:1;stroke:url(#linearGradient3857-3);stroke-width:1;stroke-linecap:round;stroke-linejoin:round;stroke-miterlimit:4;stroke-opacity:1;stroke-dasharray:none;display:inline"
         sodipodi:type="arc" />
      <path
         sodipodi:nodetypes="csscssscsccssccssscsscscscccccccscsscscccssccsccssssc"
         inkscape:connector-curvature="0"
         id="path3802"
         d="M 29.84375,2.625 C 29.82533,2.63241 29.721057,2.703102 29.625,3.25 29.52894,3.7968978 29.52547,4.6237734 29.5625,5.5625 29.58432,6.115706 29.59646,6.7254709 29.625,7.3125 29.94166,6.6095256 30.28966,5.9039182 30.53125,5.25 30.849405,4.388842 30.98921,3.6146105 30.9375,3.25 30.88579,2.8853895 30.915373,2.8468105 30.28125,2.6875 29.940299,2.6018431 29.842576,2.6254726 29.84375,2.625 z M 22.125,6.28125 C 21.938017,6.354134 21.917529,6.4195898 21.90625,6.4375 21.89497,6.45541 21.87134,6.498167 21.875,6.65625 c 0.0073,0.316166 0.222346,0.9669597 0.5625,1.6875 0.340154,0.7205403 0.767547,1.4954053 1.125,2.25 0.113777,0.240187 0.211529,0.48158 0.3125,0.71875 C 23.86365,11.089583 23.85437,10.878645 23.84375,10.625 23.809952,9.8174087 23.766294,8.8856147 23.625,8.0625 23.483706,7.2393853 23.207937,6.573527 23,6.34375 22.792063,6.113973 22.814307,6.0125641 22.125,6.28125 z m 17,0.65625 c -0.008,-0.00181 0.03227,0.00148 -0.03125,0.03125 -0.127043,0.05954 -0.518117,0.4111417 -0.90625,1 C 37.974559,8.291815 37.712663,8.7327084 37.5,9.125 37.901108,8.8310119 38.318696,8.5326905 38.65625,8.28125 39.194276,7.8804791 39.549186,7.4727804 39.59375,7.375 39.590867,7.3668305 39.571236,7.318048 39.40625,7.15625 39.231162,6.9845451 39.133031,6.9393083 39.125,6.9375 z m 5.03125,9.75 c -0.115871,-0.04249 -0.610983,-0.03915 -1.25,0.09375 -0.390456,0.0812 -0.951817,0.176081 -1.40625,0.3125 0.24497,0.03767 0.480389,0.09783 0.71875,0.125 0.827586,0.09432 1.6014,0.06564 1.9375,-0.03125 0.16805,-0.04844 0.177809,-0.08897 0.15625,-0.0625 -0.02156,0.02647 -0.02101,0.10466 -0.03125,-0.03125 -0.03671,-0.48718 -0.0091,-0.363755 -0.125,-0.40625 z M 8.21875,22.25 C 8.091797,22.303205 7.9322984,22.397929 7.75,23.1875 7.6683108,23.541312 7.6760777,23.701081 7.6875,23.75 7.750475,23.774182 8.28814,23.85041 9,23.71875 9.7287996,23.583957 10.586102,23.321554 11.375,23.0625 11.44759,23.03867 11.492319,23.02354 11.5625,23 c -0.07683,-0.02076 -0.175029,0.02174 -0.25,0 -0.751589,-0.217899 -1.4321022,-0.501208 -2,-0.65625 C 8.7446022,22.188708 8.345703,22.196795 8.21875,22.25 z m 31.5625,1.625 c 0.06137,0.02628 0.124901,0.03483 0.1875,0.0625 0.832608,0.368063 1.761963,0.890414 2.65625,1.28125 0.894287,0.390836 1.750394,0.634148 2.1875,0.625 0.218553,-0.0046 0.297696,-0.0584 0.34375,-0.09375 0.04605,-0.03535 0.11399,-0.110763 0.1875,-0.40625 0.0633,-0.254446 0.04402,-0.298511 0,-0.375 C 45.299731,24.892261 45.16228,24.771182 44.875,24.625 44.300439,24.332636 43.191707,24.111071 42.03125,24 c -0.780846,-0.07474 -1.50858,-0.09773 -2.25,-0.125 z"
         style="opacity:0.24;fill:none;stroke:url(#radialGradient3798);stroke-linejoin:round;stroke-opacity:1;display:inline" />
    </g>
  </g>
</svg>
