<?xml version="1.0" encoding="UTF-8" standalone="no"?>
<!-- Created with Inkscape (http://www.inkscape.org/) -->

<svg
   xmlns:dc="http://purl.org/dc/elements/1.1/"
   xmlns:cc="http://creativecommons.org/ns#"
   xmlns:rdf="http://www.w3.org/1999/02/22-rdf-syntax-ns#"
   xmlns:svg="http://www.w3.org/2000/svg"
   xmlns="http://www.w3.org/2000/svg"
   xmlns:xlink="http://www.w3.org/1999/xlink"
   xmlns:sodipodi="http://sodipodi.sourceforge.net/DTD/sodipodi-0.dtd"
   xmlns:inkscape="http://www.inkscape.org/namespaces/inkscape"
   id="svg3675"
   height="32"
   width="32"
   version="1.0"
   inkscape:version="0.48.4 r9939"
   sodipodi:docname="apport.svg"
   inkscape:export-filename="/home/vishnoo/Desktop/apport-32.png"
   inkscape:export-xdpi="90"
   inkscape:export-ydpi="90">
  <sodipodi:namedview
     pagecolor="#ffffff"
     bordercolor="#666666"
     borderopacity="1"
     objecttolerance="10"
     gridtolerance="10"
     guidetolerance="10"
     inkscape:pageopacity="0"
     inkscape:pageshadow="2"
     inkscape:window-width="1280"
     inkscape:window-height="776"
     id="namedview24"
     showgrid="false"
     inkscape:zoom="1"
     inkscape:cx="27.575111"
     inkscape:cy="13.464122"
     inkscape:window-x="0"
     inkscape:window-y="24"
     inkscape:window-maximized="1"
     inkscape:current-layer="layer3"
     inkscape:snap-global="true">
    <inkscape:grid
       type="xygrid"
       id="grid3008"
       empspacing="5"
       visible="true"
       enabled="true"
       snapvisiblegridlinesonly="true" />
  </sodipodi:namedview>
  <metadata
     id="metadata29">
    <rdf:RDF>
      <cc:Work
         rdf:about="">
        <dc:format>image/svg+xml</dc:format>
        <dc:type
           rdf:resource="http://purl.org/dc/dcmitype/StillImage" />
        <dc:title />
      </cc:Work>
    </rdf:RDF>
  </metadata>
  <defs
     id="defs3677">
    <radialGradient
       fy="3.9898655"
       fx="24.756285"
       r="20.396999"
       gradientTransform="matrix(-3.142937e-8,2.0591264,-1.8630191,-2.8436097e-8,-16.045795,-47.797048)"
       cx="24.756285"
       cy="3.9898655"
       gradientUnits="userSpaceOnUse"
       id="radialGradient3826">
      <stop
         offset="0"
         style="stop-color:#8bd0ea;stop-opacity:1"
         id="stop3828" />
      <stop
         offset="0.2857143"
         style="stop-color:#19b6ee;stop-opacity:1"
         id="stop3830" />
      <stop
         offset="0.85714281"
         style="stop-color:#3b90af;stop-opacity:1"
         id="stop3832" />
      <stop
         offset="1"
         style="stop-color:#195870;stop-opacity:1"
         id="stop3834" />
    </radialGradient>
    <radialGradient
       inkscape:collect="always"
       xlink:href="#radialGradient2410-3"
       id="radialGradient3867-0"
       cx="35.589161"
       cy="40.983368"
       fx="35.589161"
       fy="40.983368"
       r="2.2073171"
       gradientTransform="matrix(4.5814982,-0.52258416,0.33397591,2.9198319,-141.07719,-59.956292)"
       gradientUnits="userSpaceOnUse" />
    <radialGradient
       id="radialGradient2410-3"
       gradientUnits="userSpaceOnUse"
       cy="3.9898655"
       cx="24.756285"
       gradientTransform="matrix(-3.142937e-8,2.0591264,-1.8630191,-2.8436097e-8,-16.045795,-47.797048)"
       r="20.396999"
       fx="24.756285"
       fy="3.9898655">
      <stop
         id="stop2778-1"
         style="stop-color:#8bd0ea;stop-opacity:1"
         offset="0" />
      <stop
         id="stop2780-4"
         style="stop-color:#19b6ee;stop-opacity:1"
         offset=".26238" />
      <stop
         id="stop2782-8"
         style="stop-color:#3b90af;stop-opacity:1"
         offset="0.80952388" />
      <stop
         id="stop2784-8"
         style="stop-color:#195870;stop-opacity:1"
         offset="1" />
    </radialGradient>
    <linearGradient
       inkscape:collect="always"
       xlink:href="#linearGradient2412-9"
       id="linearGradient3857-3"
       x1="33.308655"
       y1="41.007549"
       x2="45.269791"
       y2="44.260967"
       gradientUnits="userSpaceOnUse" />
    <linearGradient
       id="linearGradient2412-9"
       y2="3.0816"
       gradientUnits="userSpaceOnUse"
       x2="18.379"
       gradientTransform="matrix(0.95844,0,0,0.95844,-46.481472,-0.82322829)"
       y1="44.98"
       x1="18.379">
      <stop
         offset="0"
         style="stop-color:#409fc2;stop-opacity:1;"
         id="stop3839-7" />
      <stop
         id="stop2790-7"
         style="stop-color:#1f566a;stop-opacity:1;"
         offset="1" />
    </linearGradient>
    <linearGradient
       id="linearGradient2407-9"
       y2="9.7258072"
       gradientUnits="userSpaceOnUse"
       x2="62.673725"
       gradientTransform="matrix(2.1154,0,0,2.1153,-155.05899,29.606272)"
       y1="-15.329741"
       x1="62.673725">
      <stop
         offset="0"
         style="stop-color:#ffffff;stop-opacity:0.2;"
         id="stop3846" />
      <stop
         id="stop4877-7"
         style="stop-color:#ffffff;stop-opacity:1;"
         offset="1" />
    </linearGradient>
    <radialGradient
       r="23"
       fy="21.577589"
       fx="24.263052"
       cy="21.577589"
       cx="24.263052"
       gradientTransform="matrix(1.7395069,0.07906854,-0.08695654,1.9130435,-23.329434,-13.19731)"
       gradientUnits="userSpaceOnUse"
       id="radialGradient3919"
       xlink:href="#linearGradient2412-9"
       inkscape:collect="always" />
    <radialGradient
       inkscape:collect="always"
       xlink:href="#radialGradient2410-3"
       id="radialGradient4016"
       gradientUnits="userSpaceOnUse"
       gradientTransform="matrix(1.2780638,0.07528639,-0.05933009,1.0071888,-14.740431,9.6436942)"
       cx="26.513241"
       cy="15.85399"
       fx="26.513241"
       fy="15.85399"
       r="23" />
    <radialGradient
       inkscape:collect="always"
       xlink:href="#radialGradient3826"
       id="radialGradient3824"
       cx="6.9312568"
       cy="9.6909275"
       fx="6.9312568"
       fy="9.6909275"
       r="5.7624369"
       gradientTransform="matrix(2.1542329,1.6698064e-7,-1.2523545e-7,1.6156747,-8.0002835,-5.6227201)"
       gradientUnits="userSpaceOnUse" />
    <radialGradient
       inkscape:collect="always"
       xlink:href="#linearGradient2407-9"
       id="radialGradient3844"
       cx="23.997759"
       cy="23.97245"
       fx="23.997759"
       fy="23.97245"
       r="21.778328"
       gradientTransform="matrix(1,0,0,1.0012475,0,-0.02990542)"
       gradientUnits="userSpaceOnUse" />
  </defs>
  <g
     inkscape:groupmode="layer"
     id="layer3"
     inkscape:label="plain"
     style="display:inline"
     transform="translate(0,-16)">
    <g
       id="g3009">
      <path
         sodipodi:nodetypes="zzzzzzszszzzzzzzszazzzzzzzsszzzzaszssssszsz"
         inkscape:connector-curvature="0"
         id="path4007"
         d="m 24.481077,30.965135 c 0,0.493918 6.589095,-0.366328 5.979248,2.085061 -0.609846,2.451389 -4.878776,-1.225694 -5.488624,-0.612847 -0.609847,0.612847 -0.822474,-0.09385 -1.108645,0.352382 -0.286171,0.446234 0.309416,0.767803 0.652856,1.845584 0.343436,1.077782 7.389872,1.965937 5.677515,5.142393 -1.712357,3.176455 -5.353366,-4.491181 -8.44752,-3.537698 -0.880911,0.271463 -1.196273,1.17252 -1.638757,1.741065 -0.44248,0.568546 1.973662,2.644887 0.872034,3.565108 -0.707559,0.591043 -0.753718,-2.622926 -1.958313,-2.955184 -1.204593,-0.332259 -2.670926,0.376153 -3.280775,0.988999 -0.609847,0.612849 0.707972,6.769421 -2.712669,6.917334 -3.4206388,0.147911 0.812111,-5.496659 1.177502,-7.438476 0.365392,-1.941813 -0.208407,-2.42919 -0.652456,-2.716769 -0.44405,-0.287578 -1.100058,-1.037717 -2.516003,-0.643289 -1.415944,0.394432 -4.9914108,6.167887 -6.574869,3.514874 -1.5834574,-2.653012 2.7243116,-3.301978 5.4427143,-3.962531 0.5520377,-0.13414 0.6694967,-1.567833 0.6694967,-1.813417 0,-0.245582 0.130834,-0.733113 -0.04673,-1.024865 C 10.282362,32.010704 10.330073,31.547728 9.3050413,31.711595 8.2800119,31.875464 4.2300169,33.874062 4.8187671,31.324069 5.4075175,28.774073 7.8052034,31.197358 9.2280168,30.760526 10.650831,30.323691 10.95789,29.286648 11.24406,28.840414 11.530233,28.39418 8.9295164,27.299099 9.0950585,27.132745 9.2606054,26.966389 -0.54964764,25.153197 1.8897412,21.462308 c 2.4393894,-3.690885 7.3936696,3.451858 8.08158,4.367337 0.6879108,0.91548 4.7518808,2.235841 5.4075908,-1.04693 0.214548,-1.074119 -2.692468,-4.152847 -0.844316,-4.873241 2.508071,-0.977622 1.931385,3.971942 2.189468,4.51018 0.258084,0.53824 1.055559,1.043663 1.931816,-0.829884 0.876259,-1.873545 -0.856683,-6.648896 1.582705,-6.036048 2.439391,0.612846 -0.510196,4.359718 -0.608323,5.860034 -0.09812,1.500318 0.387636,1.384787 0.972859,1.564633 0.824779,0.253467 1.646751,-0.181343 2.363885,-1.057295 1.009094,-1.23258 2.012053,-4.712463 3.455965,-3.296457 1.443908,1.416005 -2.103131,2.211694 -2.404556,3.634679 -0.120282,0.567832 0.816309,0.08401 0.940165,0.775692 0.09705,0.541962 -0.617495,0.465984 -0.673132,1.185089 -0.0098,0.126755 0.141294,1.111286 0.912845,1.080532 1.606275,-0.06403 4.451402,-1.790499 4.59997,0.180943 0.137137,1.819735 -4.264456,0.304151 -4.776681,0.496289 -0.512224,0.192136 0.158148,0.5255 0.307107,1.301962 0.100544,0.524077 -0.847614,1.191396 -0.847614,1.685312 z"
         style="fill:url(#radialGradient4016);fill-opacity:1;stroke:url(#radialGradient3919);stroke-width:0.99961811000000000;stroke-miterlimit:4;stroke-opacity:1;stroke-dasharray:none;display:inline" />
      <path
         transform="matrix(0.64445285,0,0,0.6444528,0.53313171,16.53313)"
         inkscape:href="#path3004-3"
         d="m 30,3 c 0.157316,-0.06332 0.116705,-0.1740355 0.03125,0.3125 -0.08427,0.4797832 -0.09756,1.3023804 -0.0625,2.21875 0.0562,-0.1394744 0.137953,-0.3033912 0.1875,-0.4375 0.308826,-0.8359077 0.408931,-1.5420009 0.375,-1.78125 C 30.497319,3.0732509 30.710008,3.1937694 30.1875,3.0625 29.893816,2.9887178 29.894226,3.0425747 30,3 z m -7.28125,3.59375 c -0.114069,-0.1260503 0.150397,-0.1666569 -0.4375,0.0625 0.01096,0.2152377 0.174426,0.8415933 0.5,1.53125 0.161216,0.3414994 0.370977,0.7248869 0.5625,1.09375 C 23.310883,8.8863319 23.311864,8.4853924 23.25,8.125 23.114505,7.3356715 22.832819,6.7198003 22.71875,6.59375 z m -18.46875,1 C 3.9758075,7.7098469 3.6896705,7.9766093 3.34375,8.5 3.0150843,8.9972837 2.9783851,9.2795415 3,9.53125 c 0.021615,0.2517085 0.1336899,0.541072 0.4375,0.90625 0.6076203,0.730356 1.9832363,1.602838 3.53125,2.28125 1.5480137,0.678412 3.256783,1.213641 4.5625,1.59375 0.576628,0.167863 1.047709,0.294291 1.4375,0.40625 C 12.118985,13.569905 10.445539,11.297536 8.40625,9.5 7.2396039,8.4716574 6.025874,7.7564099 5.21875,7.59375 4.815188,7.5124201 4.5241925,7.4776531 4.25,7.59375 z m 24.3125,5.4375 c -0.58031,0.771653 -1.215006,1.354137 -2.09375,1.46875 -0.68513,0.08936 -1.37118,-0.142588 -1.8125,-0.46875 -0.162526,-0.120117 -0.221659,-0.271286 -0.34375,-0.40625 -0.385704,1.31085 -1.081382,2.426134 -2.03125,3.0625 -1.086346,0.7278 -2.328152,0.939175 -3.46875,0.90625 -0.581179,-0.01678 -1.060272,-0.220363 -1.59375,-0.34375 0.225531,0.188451 0.463787,0.405917 0.6875,0.78125 0.223713,0.375333 0.413941,1.229534 0,1.875 -0.100221,0.156278 -0.708528,1.579763 -2.125,2.65625 0.09477,0.06926 0.235627,0.07773 0.3125,0.15625 0.633492,0.647031 0.662164,1.114615 0.6875,1.15625 0.402378,0.661187 0.390702,1.247442 0.375,1.65625 -0.0157,0.408808 -0.0625,0.737861 -0.0625,0.6875 0,0.463437 -0.04998,1.049628 -0.25,1.84375 -0.0126,0.05004 -0.04878,0.105558 -0.0625,0.15625 2.320302,-0.218798 4.011546,1.115809 4.21875,1.25 0.418454,0.271001 1.206832,0.882377 1.59375,1.875 0.324235,0.831813 0.352971,1.8994 0.1875,3.1875 0.673395,-0.614627 1.475858,-1.166285 2.5,-1.53125 1.127127,-0.401665 2.460526,-0.622907 3.8125,-0.25 0.05986,-0.144589 -0.01128,-0.271295 0.09375,-0.40625 0.424069,-0.544886 1.116604,-2.520448 3.28125,-3.1875 1.825705,-0.562605 3.548645,0.15105 4.96875,1.09375 1.420105,0.9427 2.716195,2.18035 3.875,3.25 1.158805,1.06965 2.234037,1.965671 2.78125,2.1875 0.273607,0.110914 0.332522,0.05533 0.3125,0.0625 -0.02002,0.0072 0.0628,-0.001 0.28125,-0.40625 0.444358,-0.824293 0.354772,-0.941829 -0.03125,-1.4375 C 44.270228,33.410579 43.331784,32.759697 42.1875,32.21875 41.043216,31.677803 39.738671,31.213243 38.625,30.75 38.068165,30.518379 37.561682,30.280969 37.09375,30 c -0.467932,-0.280969 -1.027364,-0.542678 -1.3125,-1.4375 -0.201545,-0.632493 -0.457798,-0.998816 -0.75,-1.5 -0.146101,-0.250592 -0.340322,-0.544855 -0.4375,-1.03125 -0.09718,-0.486395 0.02437,-1.175715 0.3125,-1.625 0.219844,-0.34281 0.767696,-0.675016 1.28125,-0.8125 -0.03507,-0.03109 -0.05694,-0.02433 -0.09375,-0.0625 -0.220877,-0.229032 -0.4375,-0.6798 -0.4375,-1.125 0,-1.350964 0.672591,-1.786636 1,-2.21875 0.110815,-0.146254 0.160538,-0.222814 0.21875,-0.3125 -0.06609,-0.180985 -0.138629,-0.337768 -0.34375,-0.6875 -0.130531,-0.222557 -0.425148,-0.523016 -0.34375,-1.3125 0.01758,-0.170486 0.173795,-0.299544 0.25,-0.46875 -0.262273,-0.247586 -0.528046,-0.505704 -0.65625,-0.75 -0.182288,-0.347354 -0.310814,-0.66639 -0.375,-0.9375 -0.06419,-0.27111 -0.103153,-0.286805 -0.0625,-0.8125 0.03644,-0.471035 0.223478,-0.846973 0.4375,-1.1875 -0.195641,-0.118107 -0.365625,-0.407508 -0.53125,-0.65625 -0.485617,0.470987 -0.960722,0.970623 -1.5625,1.25 -0.895367,0.415677 -1.967817,0.526351 -2.96875,0.21875 -0.240712,-0.07397 -0.986437,-0.02134 -1.78125,-0.78125 -0.205664,-0.196633 -0.251104,-0.480763 -0.375,-0.71875 z M 8.375,22.625 c 0.010694,-0.0045 -0.084181,-0.06194 -0.25,0.65625 -0.023295,0.100895 0.0064,0.06152 0,0.125 0.1247192,0.0022 0.2970812,0.03283 0.8125,-0.0625 C 9.285256,23.279432 9.6925525,23.114834 10.09375,23 9.7987636,22.898674 9.425228,22.783652 9.1875,22.71875 8.6526694,22.572735 8.3643057,22.629482 8.375,22.625 z m 33.375,1.75 c 0.34664,0.167963 0.693628,0.321197 1.03125,0.46875 0.875041,0.382424 1.713248,0.600406 2.03125,0.59375 0.159001,-0.0033 0.129173,-0.02719 0.09375,0 -0.03542,0.02719 0.005,0.04363 0.0625,-0.1875 0.04364,-0.175419 0.0234,-0.07614 0.03125,-0.0625 0.0079,0.01364 -0.07013,-0.09542 -0.3125,-0.21875 C 44.202752,24.722087 43.139419,24.484058 42,24.375 c -0.0858,-0.0082 -0.163469,0.0073 -0.25,0 z m -29.59375,6.90625 c -1.329494,0.329265 -2.7783821,0.599917 -3.6875,1.03125 -0.790376,0.374996 -1.2400962,0.793457 -1.34375,1 -0.1036538,0.206543 -0.1642085,0.347404 0.28125,1.09375 0.1807739,0.302879 0.2607164,0.335975 0.28125,0.34375 0.020534,0.0078 0.085647,0.03643 0.3125,-0.03125 0.453707,-0.135368 1.3589771,-0.753498 2.28125,-1.59375 0.620069,-0.564924 1.248684,-1.206903 1.875,-1.84375 z m 9.625,6.28125 c -0.186461,0.396462 -0.257698,0.761265 -0.46875,1.1875 -0.623567,1.259342 -1.322628,2.602601 -1.8125,3.78125 -0.478288,1.150779 -0.678808,2.139019 -0.65625,2.40625 0.01363,0.0029 0.08221,0.07921 0.46875,0.0625 0.868755,-0.03757 1.155683,-0.315742 1.53125,-0.9375 0.375567,-0.621758 0.656443,-1.682234 0.78125,-2.84375 0.124807,-1.161516 0.130314,-2.403742 0.15625,-3.46875 0.0017,-0.06786 -0.0018,-0.121167 0,-0.1875 z"
         id="path4009"
         style="opacity:0.36;fill:none;stroke:url(#radialGradient3844);stroke-width:1.55111134000000006;stroke-miterlimit:4;stroke-opacity:1;stroke-dasharray:none;display:inline;stroke-linejoin:round"
         xlink:href="#path3004-3"
         inkscape:original="M 29.4375 1.59375 C 27.397809 2.4147366 29.31473 8.3937087 28.125 10.9375 C 26.765309 13.844691 25.525468 13.085187 25.125 12.25 C 24.724533 11.414812 25.610531 3.7330179 21.71875 5.25 C 18.850964 6.3678382 23.364164 11.145784 23.03125 12.8125 C 22.013784 17.906388 15.723684 15.858053 14.65625 14.4375 C 13.588817 13.016947 5.87896 1.9290856 2.09375 7.65625 C -1.691459 13.383415 13.53813 16.179364 13.28125 16.4375 C 13.024378 16.695633 17.069055 18.401327 16.625 19.09375 C 16.180949 19.786173 15.707785 21.384664 13.5 22.0625 C 11.292215 22.740334 7.569816 18.980661 6.65625 22.9375 C 5.742684 26.894338 12.034452 23.816776 13.625 23.5625 C 15.215545 23.308227 15.120255 24.032222 15.5 24.65625 C 15.775505 25.10896 15.59375 25.837678 15.59375 26.21875 C 15.59375 26.599823 15.387848 28.823102 14.53125 29.03125 C 10.313094 30.056232 3.636693 31.07081 6.09375 35.1875 C 8.550808 39.304191 14.115373 30.36204 16.3125 29.75 C 18.509627 29.137961 19.498467 30.303764 20.1875 30.75 C 20.876534 31.196236 21.78573 31.955629 21.21875 34.96875 C 20.651772 37.981872 14.06718 46.729515 19.375 46.5 C 24.682821 46.270484 22.647447 36.700958 23.59375 35.75 C 24.540052 34.799042 26.818326 33.703186 28.6875 34.21875 C 30.556673 34.734315 30.620828 39.729624 31.71875 38.8125 C 33.428152 37.384589 29.688399 34.163466 30.375 33.28125 C 31.061602 32.399035 31.539336 31.014975 32.90625 30.59375 C 37.707458 29.114222 43.374182 40.99142 46.03125 36.0625 C 48.68832 31.13358 37.751663 29.76615 37.21875 28.09375 C 36.685836 26.421351 35.743448 25.911174 36.1875 25.21875 C 36.631551 24.526328 36.959948 25.638457 37.90625 24.6875 C 38.852552 23.736544 45.491198 29.42883 46.4375 25.625 C 47.383802 21.821172 37.15625 23.172665 37.15625 22.40625 C 37.15625 21.639838 38.624761 20.594464 38.46875 19.78125 C 38.237608 18.576413 37.205178 18.04814 38 17.75 C 38.794822 17.45186 45.619045 19.823688 45.40625 17 C 45.175715 13.940904 40.773712 16.6194 38.28125 16.71875 C 37.084033 16.76647 36.82854 15.227935 36.84375 15.03125 C 36.930083 13.91541 38.056836 14.028468 37.90625 13.1875 C 37.714063 12.114215 36.25086 12.881105 36.4375 12 C 36.905222 9.7919448 42.428021 8.540973 40.1875 6.34375 C 37.946979 4.1465269 36.378317 9.5561508 34.8125 11.46875 C 33.699723 12.827971 32.436064 13.487055 31.15625 13.09375 C 30.248158 12.814681 29.472739 13.015548 29.625 10.6875 C 29.777261 8.3594529 34.34771 2.544707 30.5625 1.59375 C 30.089349 1.4748804 29.728884 1.4764662 29.4375 1.59375 z "
         inkscape:radius="-1.5152111"
         sodipodi:type="inkscape:offset" />
      <path
         transform="matrix(0.27159435,0.58442445,-0.58439491,0.27160807,36.918162,12.395627)"
         d="m 39.048035,41.353657 c 0,0.827868 -1.211773,1.498988 -2.70657,1.498988 -1.494797,0 -2.70657,-0.67112 -2.70657,-1.498988 0,-0.827868 1.211773,-1.498988 2.70657,-1.498988 1.494797,0 2.70657,0.67112 2.70657,1.498988 z"
         sodipodi:ry="1.498988"
         sodipodi:rx="2.7065697"
         sodipodi:cy="41.353657"
         sodipodi:cx="36.341465"
         id="path4011"
         style="fill:url(#radialGradient3867-0);fill-opacity:1;stroke:url(#linearGradient3857-3);stroke-width:1.55114412000000002;stroke-linecap:round;stroke-linejoin:round;stroke-miterlimit:4;stroke-opacity:1;stroke-dasharray:none;display:inline"
         sodipodi:type="arc" />
      <path
         sodipodi:nodetypes="sssssscsss"
         inkscape:connector-curvature="0"
         id="path3815"
         d="M 4.25,7.59375 C 3.9758075,7.7098469 3.6896705,7.9766093 3.34375,8.5 3.0150843,8.9972837 2.9783851,9.2795415 3,9.53125 c 0.021615,0.2517085 0.1336899,0.541072 0.4375,0.90625 0.6076203,0.730356 1.9832363,1.602838 3.53125,2.28125 1.5480137,0.678412 3.256783,1.213641 4.5625,1.59375 0.576628,0.167863 1.047709,0.294291 1.4375,0.40625 C 12.118985,13.569905 10.445539,11.297536 8.40625,9.5 7.2396039,8.4716574 6.025874,7.7564099 5.21875,7.59375 4.815188,7.5124201 4.5241925,7.4776531 4.25,7.59375 z"
         style="opacity:1;fill:url(#radialGradient3824);stroke:none;stroke-width:1.55111134000000006;stroke-linejoin:round;stroke-miterlimit:4;stroke-opacity:1;display:inline;fill-opacity:1"
         transform="matrix(0.64445285,0,0,0.6444528,0.53313171,16.53313)" />
    </g>
  </g>
</svg>
